<?xml version="1.0" encoding="UTF-8" standalone="no"?>
<!-- Created with Inkscape (http://www.inkscape.org/) -->

<svg
   xmlns:dc="http://purl.org/dc/elements/1.1/"
   xmlns:cc="http://creativecommons.org/ns#"
   xmlns:rdf="http://www.w3.org/1999/02/22-rdf-syntax-ns#"
   xmlns:svg="http://www.w3.org/2000/svg"
   xmlns="http://www.w3.org/2000/svg"
   xmlns:xlink="http://www.w3.org/1999/xlink"
   xmlns:sodipodi="http://sodipodi.sourceforge.net/DTD/sodipodi-0.dtd"
   xmlns:inkscape="http://www.inkscape.org/namespaces/inkscape"
   sodipodi:docname="Ingot_sl.svg"
   inkscape:version="0.48.4 r9939"
   version="1.1"
   id="svg2"
   height="439.52878"
   width="308.14285">
  <defs
     id="defs4">
    <linearGradient
       inkscape:collect="always"
       id="linearGradient5699">
      <stop
         style="stop-color:#000000;stop-opacity:1;"
         offset="0"
         id="stop5701" />
      <stop
         style="stop-color:#000000;stop-opacity:0;"
         offset="1"
         id="stop5703" />
    </linearGradient>
    <linearGradient
       inkscape:collect="always"
       id="linearGradient5673">
      <stop
         style="stop-color:#000000;stop-opacity:1;"
         offset="0"
         id="stop5675" />
      <stop
         style="stop-color:#000000;stop-opacity:0;"
         offset="1"
         id="stop5677" />
    </linearGradient>
    <linearGradient
       inkscape:collect="always"
       id="linearGradient5665">
      <stop
         style="stop-color:#eb3a00;stop-opacity:1"
         offset="0"
         id="stop5667" />
      <stop
         style="stop-color:#000000;stop-opacity:0;"
         offset="1"
         id="stop5669" />
    </linearGradient>
    <linearGradient
       id="linearGradient5405">
      <stop
         style="stop-color:#00aaaa;stop-opacity:0.66666669;"
         offset="0"
         id="stop5407" />
      <stop
         id="stop5415"
         offset="0.55385339"
         style="stop-color:#0064aa;stop-opacity:0.49803922;" />
      <stop
         style="stop-color:#0064aa;stop-opacity:0;"
         offset="1"
         id="stop5409" />
    </linearGradient>
    <linearGradient
       id="linearGradient5391">
      <stop
         style="stop-color:#0064aa;stop-opacity:1;"
         offset="0"
         id="stop5393" />
      <stop
         style="stop-color:#0064aa;stop-opacity:0;"
         offset="1"
         id="stop5395" />
    </linearGradient>
    <linearGradient
       id="linearGradient5363">
      <stop
         style="stop-color:#0064aa;stop-opacity:0.66666669;"
         offset="0"
         id="stop5365" />
      <stop
         style="stop-color:#aa0000;stop-opacity:0.66666669;"
         offset="1"
         id="stop5367" />
    </linearGradient>
    <linearGradient
       id="linearGradient3851">
      <stop
         style="stop-color:#ffff00;stop-opacity:1;"
         offset="0"
         id="stop3853" />
      <stop
         style="stop-color:#ffff00;stop-opacity:0;"
         offset="1"
         id="stop3855" />
    </linearGradient>
    <linearGradient
       inkscape:collect="always"
       xlink:href="#linearGradient5665"
       id="linearGradient5671"
       x1="-751.42859"
       y1="708.07648"
       x2="-820"
       y2="683.79077"
       gradientUnits="userSpaceOnUse" />
    <linearGradient
       inkscape:collect="always"
       xlink:href="#linearGradient5673"
       id="linearGradient5683"
       x1="-825.01331"
       y1="737.38824"
       x2="-751.42859"
       y2="708.07648"
       gradientUnits="userSpaceOnUse" />
    <linearGradient
       inkscape:collect="always"
       xlink:href="#linearGradient5699"
       id="linearGradient5705"
       x1="-913.35339"
       y1="713.15839"
       x2="-758.49988"
       y2="713.15839"
       gradientUnits="userSpaceOnUse" />
  </defs>
  <sodipodi:namedview
     id="base"
     pagecolor="#ffffff"
     bordercolor="#666666"
     borderopacity="1.0"
     inkscape:pageopacity="0.0"
     inkscape:pageshadow="2"
     inkscape:zoom="0.98994949"
     inkscape:cx="207.52849"
     inkscape:cy="213.29494"
     inkscape:document-units="px"
     inkscape:current-layer="layer1"
     showgrid="false"
     inkscape:window-width="1920"
     inkscape:window-height="1006"
     inkscape:window-x="-8"
     inkscape:window-y="-8"
     inkscape:window-maximized="1"
     fit-margin-top="0"
     fit-margin-left="0"
     fit-margin-right="0"
     fit-margin-bottom="0" />
  <metadata
     id="metadata7">
    <rdf:RDF>
      <cc:Work
         rdf:about="">
        <dc:format>image/svg+xml</dc:format>
        <dc:type
           rdf:resource="http://purl.org/dc/dcmitype/StillImage" />
        <dc:title />
      </cc:Work>
    </rdf:RDF>
  </metadata>
  <g
     inkscape:label="Layer 1"
     inkscape:groupmode="layer"
     id="layer1"
     transform="translate(369.67989,-323.20927)">
    <g
       id="g3773"
       transform="matrix(1.0991668,0,0,1,-36.911303,26)" />
    <path
       style="fill:#ff0000;fill-opacity:0.66666667;stroke:#000000;stroke-width:0.91466975;stroke-linecap:round;stroke-linejoin:bevel;stroke-miterlimit:10.43299961;stroke-opacity:1;stroke-dasharray:none;stroke-dashoffset:0"
       d="m -299.87987,508.91834 c -6.32368,-73.46641 -10.33544,-94.9772 -22.13611,-118.69246 -8.96075,-18.00799 -23.89242,-29.55559 -40.71076,-31.48418 l -6.45319,-0.74 0,-17.16755 0,-17.16755 153.57143,0 153.571431,0 0,17.17726 0,17.17724 -6.07143,0.7869 c -24.84098,3.21956 -40.662281,21.97877 -49.489731,58.67965 -7.93256,40.79599 -8.28084,64.25912 -11.66325,107.92095 -6.26188,61.9936 -19.84693,104.95187 -83.84251,104.95187 -64.57422,0 -76.58202,-34.92175 -86.77588,-121.44213 z"
       id="path3807"
       inkscape:connector-curvature="0"
       sodipodi:nodetypes="csscccccccsccsc" />
    <path
       style="fill:#0064aa;fill-opacity:0.66666667;stroke:#000000;stroke-width:1;stroke-linecap:round;stroke-linejoin:bevel;stroke-miterlimit:10.43299961;stroke-opacity:1;stroke-dasharray:none;stroke-dashoffset:0"
       d="m -369.11667,570.45232 0.0633,-191.78571 8.37531,8.97917 c 24.46074,26.22437 34.62455,65.46314 40.78327,157.4494 5.38571,80.44062 7.64778,93.50156 21.02711,121.40824 12.08389,25.20468 30.06389,40.14698 56.20868,46.71228 15.57365,3.91077 50.60357,3.50768 65.57182,-0.7545 31.1424,-8.86777 49.4289,-27.76342 61.41059,-63.45626 5.5636,-16.57369 7.75784,-35.9209 9.35453,-82.48119 2.49258,-72.68569 4.70495,-100.24022 9.921631,-123.57143 5.01984,-22.45092 14.95221,-43.39176 26.53278,-55.9402 l 7.70182,-8.34551 0.0644,191.78571 0.0644,191.78572 -153.571431,0 -153.57143,0 0.0633,-191.78572 z"
       id="path3809"
       inkscape:connector-curvature="0" />
    <text
       sodipodi:linespacing="129%"
       id="text3791"
       y="750.6557"
       x="-246.51701"
       style="font-size:40px;font-style:normal;font-variant:normal;font-weight:normal;font-stretch:normal;text-align:start;line-height:128.99999619%;letter-spacing:0px;word-spacing:0px;writing-mode:lr-tb;text-anchor:start;fill:#000000;fill-opacity:1;stroke:none;font-family:Calibri;-inkscape-font-specification:Calibri"
       xml:space="preserve"><tspan
         style="font-size:32px"
         y="750.6557"
         x="-246.51701"
         id="tspan3793"
         sodipodi:role="line">Solid</tspan></text>
    <text
       xml:space="preserve"
       style="font-size:40px;font-style:normal;font-variant:normal;font-weight:normal;font-stretch:normal;text-align:start;line-height:128.99999619%;letter-spacing:0px;word-spacing:0px;writing-mode:lr-tb;text-anchor:start;fill:#000000;fill-opacity:1;stroke:none;font-family:Calibri;-inkscape-font-specification:Calibri"
       x="-253.05608"
       y="475.45346"
       id="text3795"
       sodipodi:linespacing="129%"><tspan
         sodipodi:role="line"
         id="tspan3797"
         x="-253.05608"
         y="475.45346"
         style="font-size:32px">Liquid</tspan></text>
    <path
       style="fill:none;stroke:#000000;stroke-width:1px;stroke-linecap:butt;stroke-linejoin:miter;stroke-opacity:1"
       d="m -62.053572,356.91575 -0.178571,22.05357"
       id="path3817"
       inkscape:connector-curvature="0"
       sodipodi:nodetypes="cc" />
    <path
       style="fill:none;stroke:#000000;stroke-width:1px;stroke-linecap:butt;stroke-linejoin:miter;stroke-opacity:1"
       d="m -369.17695,356.94744 0.0947,22.44432"
       id="path5709"
       inkscape:connector-curvature="0"
       sodipodi:nodetypes="cc" />
    <path
       style="fill:#ffff00;fill-opacity:0.66666667;stroke:none"
       d="M 137.09927,390.6304 C 115.92952,388.16983 94.954031,376.56344 82.988027,360.68898 74.358596,349.24091 64.913918,329.45693 61.189722,315.02758 57.225977,299.6701 55.688927,286.44962 51.547476,232.09272 46.012772,159.44927 42.144003,132.4376 33.514289,106.18535 27.595492,88.179926 20.596915,75.922482 8.795324,62.892077 L 1.8992743,55.277992 1.3197658,45.564609 0.74025731,35.851226 6.705161,36.531705 c 3.79172,0.432562 8.948998,2.13021 14.155578,4.659665 21.656417,10.521101 34.674414,36.043354 41.210523,80.79472 0.852024,5.83363 2.91107,24.24366 4.575657,40.91118 7.826767,78.36947 15.203217,106.64503 32.712355,125.39364 8.088916,8.66153 18.056876,14.24878 30.703766,17.2101 11.05716,2.58907 39.95785,2.61448 50.90015,0.0447 20.31894,-4.77179 36.24491,-17.47878 44.94032,-35.85695 9.35107,-19.76395 13.67135,-43.14355 17.58717,-95.17479 5.34881,-71.07203 11.48749,-98.812025 26.254,-118.638743 4.88956,-6.565132 7.28025,-8.717931 14.49814,-13.055482 4.889,-2.938015 16.57091,-6.696669 20.81328,-6.696669 0.67035,0 1.06328,3.579482 1.06328,9.686103 l 0,9.686104 -6.41155,7.024964 c -7.15964,7.844621 -14.7821,20.523533 -19.65701,32.696753 -10.79119,26.94677 -14.06531,53.3239 -17.36618,139.90613 -2.56728,67.34006 -5.6441,85.74561 -18.45041,110.37055 -11.23665,21.60666 -26.38923,34.46034 -48.96109,41.53286 -13.27358,4.15907 -39.44683,5.78047 -58.17387,3.60381 l 0,0 z"
       id="path3787"
       inkscape:connector-curvature="0"
       transform="translate(-369.67989,323.20927)" />
    <text
       sodipodi:linespacing="129%"
       id="text3787"
       y="670.77203"
       x="-260.64984"
       style="font-size:40px;font-style:normal;font-variant:normal;font-weight:normal;font-stretch:normal;text-align:start;line-height:128.99999619%;letter-spacing:0px;word-spacing:0px;writing-mode:lr-tb;text-anchor:start;fill:#000000;fill-opacity:1;stroke:none;font-family:Calibri;-inkscape-font-specification:Calibri"
       xml:space="preserve"><tspan
         style="font-size:32px"
         y="670.77203"
         x="-260.64984"
         id="tspan3789"
         sodipodi:role="line">Mushy</tspan></text>
  </g>
</svg>
